<?xml version="1.0" encoding="utf-8"?>
<!-- Generator: Adobe Adobe Illustrator 24.2.0, SVG Export Plug-In . SVG Version: 6.00 Build 0)  -->
<svg version="1.1" id="Layer_1" xmlns="http://www.w3.org/2000/svg" xmlns:xlink="http://www.w3.org/1999/xlink" x="0px" y="0px"
	 width="3710px" height="1500px" viewBox="0 0 3710 1500" style="enable-background:new 0 0 3710 1500;" xml:space="preserve">
<style type="text/css">
	.st0{fill:url(#SVGID_1_);}
	.st1{fill:#FFFFFF;}
	.st2{font-family:'Arial-BoldMT';}
	.st3{font-size:253.8711px;}
	.st4{letter-spacing:34;}
	.st5{font-size:312.101px;}
	.st6{letter-spacing:23;}
</style>
<g id="Layer_2_1_">
	<g>
		
			<linearGradient id="SVGID_1_" gradientUnits="userSpaceOnUse" x1="443.3755" y1="760.5356" x2="1574.6239" y2="760.5356" gradientTransform="matrix(1 0 0 -1 0 1500)">
			<stop  offset="0" style="stop-color:#FF9B70"/>
			<stop  offset="0.5328" style="stop-color:#FF9971"/>
			<stop  offset="0.7247" style="stop-color:#FF9274"/>
			<stop  offset="0.8615" style="stop-color:#FF8779"/>
			<stop  offset="0.9713" style="stop-color:#FF7680"/>
			<stop  offset="1" style="stop-color:#FF7083"/>
		</linearGradient>
		<path class="st0" d="M1573,295.5c-12.7-89.3-95.6-151.6-184.9-138.9s-151.6,95.6-138.9,184.9c4.5,31.8,18,61,38.8,84.6l-86,128.2
			c-37.2-15.8-78.2-21.3-119.3-15.5c-59.5,8.5-112.2,39.6-148.2,87.6c-17.5,23.4-30.1,49.4-37.5,76.8l-166.7-10.5
			c-15.6-74-86.3-124.3-162.3-113.5c-79.2,11.2-134.4,84.8-123.1,164c10.3,72.3,72.5,124.6,143.5,124.6c6.8,0,13.6-0.5,20.5-1.5
			c56.5-8,100.8-47.8,117.5-98.7L889.9,778c0.4,5.1,0.9,10.2,1.7,15.3c8.5,59.5,39.6,112.2,87.6,148.2
			c39.4,29.6,86.3,45.1,134.7,45.1c10.7,0,21.4-0.8,32.1-2.3c12.1-1.7,23.9-4.4,35.4-8l60.3,134.9c-5.4,5-10.3,10.5-14.8,16.4
			c-19.7,26.2-27.9,58.4-23.3,90.8c8.7,61.1,61.2,105.3,121.2,105.3c5.7,0,11.5-0.4,17.3-1.2c66.9-9.5,113.6-71.7,104-138.5
			c-4.6-32.4-21.6-61.1-47.7-80.7c-25.6-19.2-57-27.6-88.6-23.6l-61.4-137.4c17.2-12.8,32.6-28.1,45.9-45.7
			c36.1-48,51.3-107.3,42.8-166.8c-7.5-52.7-32.8-100-71.9-135.2l83.9-125c19.6,8.1,40.4,12.2,61.8,12.2c7.7,0,15.5-0.5,23.3-1.6
			c43.2-6.1,81.4-28.8,107.7-63.7C1568,381.7,1579.1,338.7,1573,295.5z M599,797.1c-3.6,0.5-7.1,0.8-10.6,0.8
			c-36.7,0-68.9-27.1-74.2-64.5c-5.8-40.9,22.8-79,63.7-84.8c3.6-0.5,7.1-0.8,10.6-0.8c36.7,0,68.9,27.1,74.2,64.5
			C668.5,753.2,639.9,791.2,599,797.1z M1353.4,1163.4c10.2,7.6,16.7,18.7,18.5,31.3c3.7,25.9-14.4,50-40.3,53.7
			c-25.9,3.7-50-14.4-53.7-40.3c-1.8-12.6,1.4-25.1,9.1-35.2s18.7-16.7,31.3-18.5C1330.7,1152.6,1343.2,1155.8,1353.4,1163.4z
			 M1134.7,905.2c-6.9,1-13.7,1.5-20.5,1.5c-71,0-133.2-52.3-143.5-124.6c-5.5-38.3,4.4-76.5,27.6-107.5s57.2-51,95.5-56.5
			c6.9-1,13.8-1.5,20.7-1.5c31.2,0,61.4,10,86.8,29.1c31,23.3,51,57.2,56.5,95.5C1269.1,820.4,1213.9,894,1134.7,905.2z
			 M1480.2,370.4c-13.9,18.5-34.1,30.5-56.9,33.7c-4.1,0.6-8.2,0.9-12.2,0.9c-42.3,0-79.4-31.2-85.6-74.3
			c-6.7-47.2,26.2-91.1,73.5-97.8c4.1-0.6,8.2-0.9,12.2-0.9c42.3,0,79.4,31.2,85.6,74.3C1500,329.1,1494.1,351.9,1480.2,370.4z"/>
	</g>
	<text transform="matrix(1 0 0 1 1378.8528 1034.775)" class="st1 st2 st3 st4">STUDENTHUB</text>
	<text transform="matrix(1 0 0 1 1355.8013 765.3736)" class="st1 st2 st5 st6">OSLO</text>
</g>
</svg>
